<svg width="24" height="24" viewBox="0 0 24 24" fill="none" xmlns="http://www.w3.org/2000/svg">
<circle cx="12" cy="12" r="12" fill="white"/>
<g clip-path="url(#clip0_442_1475)">
<path d="M18.7685 12.1814C18.7685 13.5443 18.7986 14.9083 18.7606 16.2705C18.7192 17.7455 17.4049 19.0308 15.9296 19.1077C15.7552 19.1167 15.58 19.1218 15.4053 19.1218C12.9691 19.1225 10.5333 19.1185 8.09717 19.1243C7.18239 19.1265 6.39523 18.8317 5.75637 18.1715C5.17081 17.5667 4.88582 16.8368 4.88546 15.9964C4.88473 13.4449 4.87313 10.8931 4.88981 8.34202C4.89996 6.74088 5.96703 5.51211 7.52357 5.25577C7.70703 5.22567 7.89594 5.2206 8.0823 5.22023C10.5844 5.21806 13.087 5.23111 15.5891 5.21443C17.1757 5.20392 18.3385 6.25612 18.6645 7.48816C18.7464 7.79852 18.7747 8.131 18.778 8.4537C18.7907 9.69625 18.783 10.9388 18.783 12.1814H18.7685ZM7.32995 12.1603C7.32742 14.6407 9.34661 16.6719 11.8183 16.6755C14.3001 16.6791 16.3313 14.6632 16.3371 12.1908C16.3429 9.70749 14.3266 7.67126 11.8578 7.66618C9.36474 7.6611 7.33249 9.67812 7.32995 12.16V12.1603ZM17.3846 7.53783C17.386 7.00955 16.9589 6.58135 16.4317 6.58207C15.9071 6.5828 15.4742 7.0168 15.4771 7.53855C15.48 8.04906 15.9118 8.48307 16.4234 8.48959C16.9408 8.49648 17.3828 8.05849 17.3846 7.53783Z" fill="#3B0978"/>
<path d="M14.3865 12.1828C14.3825 13.5871 13.2288 14.7288 11.8187 14.7241C10.4166 14.7194 9.27814 13.5642 9.28322 12.1506C9.28793 10.7492 10.4449 9.61251 11.8601 9.61868C13.252 9.62484 14.3905 10.78 14.3865 12.1828Z" fill="#3B0978"/>
</g>
<defs>
<clipPath id="clip0_442_1475">
<rect width="13.9045" height="13.9099" fill="white" transform="translate(4.88086 5.21436)"/>
</clipPath>
</defs>
</svg>
