<svg width="29" height="28" viewBox="0 0 29 28" fill="none" xmlns="http://www.w3.org/2000/svg">
<circle cx="14.4355" cy="13.8085" r="13.8085" fill="#3B0978"/>
<path d="M6.3883 22.2615C6.76941 21.8119 7.14811 21.3598 7.53282 20.9126C9.20874 18.9614 10.8859 17.0125 12.5618 15.0625C12.5966 15.0216 12.6291 14.9796 12.6688 14.9315C10.5757 11.8814 8.48379 8.83494 6.37988 5.76925C6.43999 5.76444 6.47967 5.75843 6.51934 5.75843C8.02694 5.75843 9.53575 5.75843 11.0433 5.75482C11.1503 5.75482 11.2044 5.7945 11.261 5.87745C12.5834 7.80824 13.9083 9.73662 15.2331 11.665C15.2656 11.7131 15.3005 11.7588 15.3449 11.8201C15.6202 11.5015 15.8847 11.1937 16.1492 10.886C17.5739 9.22928 18.9985 7.5726 20.4184 5.91231C20.5194 5.7945 20.6203 5.75001 20.773 5.75362C21.1625 5.76444 21.5521 5.75723 21.9801 5.75723C19.9639 8.10278 17.9718 10.4207 15.9761 12.7422C16.011 12.7951 16.0386 12.8396 16.0687 12.8829C18.1798 15.9582 20.2909 19.0335 22.4008 22.1088C22.4333 22.1569 22.4598 22.2086 22.4898 22.2591H17.6917C17.6725 22.2266 17.6556 22.193 17.6352 22.1629C16.2178 20.0975 14.7991 18.0308 13.3817 15.9654C13.3588 15.9317 13.33 15.9017 13.2975 15.862C13.247 15.9185 13.205 15.9666 13.1629 16.0147C12.0184 17.3456 10.8738 18.6764 9.73051 20.0085C9.08731 20.7575 8.44652 21.5089 7.80573 22.2591H6.3883V22.2615ZM8.31788 6.82842C8.35876 6.89334 8.3816 6.93421 8.40805 6.97268C11.701 11.6878 14.9951 16.403 18.2868 21.1206C18.3445 21.2035 18.4034 21.2408 18.508 21.2396C19.1356 21.2348 19.7631 21.2372 20.3907 21.236C20.4352 21.236 20.4785 21.2288 20.5434 21.2228C20.4929 21.1494 20.458 21.0965 20.422 21.0448C18.0067 17.5872 15.5926 14.1296 13.1773 10.6732C12.3141 9.43726 11.4509 8.20137 10.5841 6.96667C10.5432 6.90897 10.4675 6.83563 10.4074 6.83563C9.72089 6.82601 9.03441 6.82962 8.31548 6.82962L8.31788 6.82842Z" fill="white"/>
</svg>
