<svg width="28" height="28" viewBox="0 0 28 28" fill="none" xmlns="http://www.w3.org/2000/svg">
<circle cx="14.1913" cy="13.8085" r="13.8085" fill="#3B0978"/>
<g clip-path="url(#clip0_442_1093)">
<path d="M14.154 7.09595C16.0043 7.16818 17.8546 7.2344 19.7041 7.31792C20.1398 7.33749 20.5769 7.39542 21.0066 7.47443C22.0465 7.6648 22.7124 8.36609 22.9096 9.45715C23.1827 10.9726 23.2376 12.5053 23.1865 14.0381C23.1503 15.1051 23.0473 16.1713 22.9434 17.2345C22.8674 18.0141 22.5491 18.6755 21.8621 19.1179C21.443 19.3881 20.9697 19.4663 20.4897 19.5167C18.4957 19.7259 16.4926 19.7613 14.4911 19.7522C12.7273 19.744 10.9636 19.6815 9.20133 19.6198C8.63398 19.6002 8.06663 19.528 7.50454 19.4452C6.3864 19.2805 5.70467 18.6138 5.48194 17.5024C5.27201 16.4557 5.2231 15.3925 5.1915 14.3301C5.14936 12.9026 5.19375 11.4775 5.37434 10.0591C5.41347 9.74986 5.4669 9.43985 5.5444 9.13811C5.78594 8.18926 6.56172 7.55194 7.59409 7.42251C9.34806 7.20355 11.1126 7.18398 12.8763 7.15464C13.3015 7.14711 13.7273 7.15389 14.1525 7.15389C14.1525 7.13507 14.1532 7.11551 14.154 7.0967V7.09595ZM12.4038 16.1457C13.9681 15.245 15.5129 14.3549 17.0833 13.4504C15.5107 12.5445 13.9651 11.6543 12.4038 10.7559V16.1457Z" fill="white"/>
</g>
<defs>
<clipPath id="clip0_442_1093">
<rect width="18.0266" height="12.6578" fill="white" transform="translate(5.17676 7.09595)"/>
</clipPath>
</defs>
</svg>
