<svg width="24" height="24" viewBox="0 0 24 24" fill="none" xmlns="http://www.w3.org/2000/svg">
<circle cx="11.9988" cy="11.9998" r="11.9998" fill="white"/>
<g clip-path="url(#clip0_442_1485)">
<path d="M18.9989 17.9804H16.306C16.306 17.9117 16.306 17.85 16.306 17.7884C16.3054 16.3653 16.3092 14.9423 16.3003 13.5193C16.2984 13.209 16.2723 12.8942 16.217 12.589C16.0568 11.7026 15.482 11.3872 14.6407 11.4903C13.8891 11.5825 13.4778 12.0244 13.3627 12.8408C13.3207 13.1384 13.3016 13.441 13.3003 13.7412C13.294 15.0955 13.2978 16.4493 13.2978 17.8036C13.2978 17.8659 13.2978 17.9283 13.2978 17.9995H10.6113V9.33471H13.1795V10.5009C13.2151 10.4812 13.2323 10.478 13.2387 10.4672C13.8128 9.54454 14.6706 9.14332 15.7287 9.11916C16.3213 9.10581 16.8999 9.1802 17.4423 9.43963C18.1443 9.77536 18.5385 10.3597 18.7566 11.0839C18.934 11.6715 18.9938 12.2774 18.9976 12.8859C19.0084 14.5519 19.0039 16.2185 19.0059 17.885C19.0059 17.9111 19.0027 17.9365 18.9995 17.9804H18.9989Z" fill="#3B0978"/>
<path d="M8.90722 9.33643V17.9967H6.22266V9.33643H8.90722Z" fill="#3B0978"/>
<path d="M9.12067 6.58128C9.1035 7.46575 8.39071 8.1582 7.51641 8.13849C6.67836 8.12005 5.98401 7.38754 5.99927 6.53868C6.01517 5.67774 6.73686 4.98021 7.59081 4.99992C8.44921 5.02027 9.13657 5.73051 9.12067 6.58065V6.58128Z" fill="#3B0978"/>
</g>
<defs>
<clipPath id="clip0_442_1485">
<rect width="13.007" height="13" fill="white" transform="translate(5.99902 5)"/>
</clipPath>
</defs>
</svg>
