<svg width="29" height="28" viewBox="0 0 29 28" fill="none" xmlns="http://www.w3.org/2000/svg">
<circle cx="14.5585" cy="13.8085" r="13.8085" fill="#3B0978"/>
<g clip-path="url(#clip0_439_737)">
<path d="M22.3479 14.017C22.3479 15.5853 22.3825 17.1549 22.3387 18.7224C22.2911 20.4197 20.7787 21.8987 19.081 21.9872C18.8803 21.9976 18.6788 22.0034 18.4777 22.0034C15.6744 22.0043 12.8715 21.9997 10.0682 22.0064C9.01558 22.0089 8.10979 21.6697 7.37465 20.9099C6.70083 20.214 6.3729 19.3741 6.37248 18.407C6.37165 15.471 6.3583 12.5346 6.37749 9.59904C6.38917 7.75659 7.61705 6.34263 9.40818 6.04765C9.61929 6.01302 9.83667 6.00718 10.0511 6.00677C12.9304 6.00426 15.81 6.01928 18.6893 6.00009C20.515 5.98799 21.853 7.19877 22.2281 8.61648C22.3224 8.97362 22.355 9.35621 22.3587 9.72754C22.3733 11.1574 22.3646 12.5872 22.3646 14.017H22.3479ZM9.18538 13.9928C9.18246 16.847 11.506 19.1843 14.3502 19.1884C17.206 19.1926 19.5433 16.8729 19.55 14.0278C19.5567 11.1703 17.2365 8.82718 14.3956 8.82134C11.5268 8.8155 9.1883 11.1365 9.18538 13.9924V13.9928ZM20.7553 8.67364C20.757 8.06575 20.2655 7.57301 19.6589 7.57385C19.0552 7.57468 18.557 8.0741 18.5603 8.67448C18.5637 9.26192 19.0606 9.76134 19.6493 9.76885C20.2447 9.77677 20.7532 9.27277 20.7553 8.67364Z" fill="white"/>
<path d="M17.306 14.019C17.3014 15.6349 15.9738 16.9487 14.3512 16.9433C12.7378 16.9379 11.4278 15.6086 11.4336 13.9818C11.439 12.3693 12.7704 11.0613 14.3988 11.0684C16.0005 11.0755 17.3106 12.4047 17.306 14.019Z" fill="white"/>
</g>
<defs>
<clipPath id="clip0_439_737">
<rect width="16" height="16.0063" fill="white" transform="translate(6.36719 6)"/>
</clipPath>
</defs>
</svg>
