<svg width="29" height="28" viewBox="0 0 29 28" fill="none" xmlns="http://www.w3.org/2000/svg">
<circle cx="14.3134" cy="13.8085" r="13.8085" fill="#3B0978"/>
<g clip-path="url(#clip0_442_1087)">
<path d="M22.5588 20.8815H19.4602C19.4602 20.8025 19.4602 20.7315 19.4602 20.6606C19.4594 19.023 19.4638 17.3855 19.4536 15.748C19.4514 15.391 19.4214 15.0288 19.3577 14.6776C19.1733 13.6576 18.5119 13.2947 17.5439 13.4133C16.679 13.5193 16.2056 14.0279 16.0732 14.9673C16.0249 15.3098 16.003 15.658 16.0015 16.0034C15.9942 17.5619 15.9986 19.1196 15.9986 20.6781C15.9986 20.7498 15.9986 20.8215 15.9986 20.9035H12.9072V10.9329H15.8625V12.2748C15.9035 12.2521 15.9232 12.2484 15.9305 12.236C16.5912 11.1743 17.5783 10.7126 18.7958 10.6848C19.4777 10.6694 20.1436 10.7551 20.7677 11.0536C21.5755 11.4399 22.0291 12.1123 22.2801 12.9457C22.4842 13.6218 22.553 14.3191 22.5574 15.0193C22.5698 16.9363 22.5647 18.854 22.5669 20.7718C22.5669 20.8018 22.5632 20.831 22.5596 20.8815H22.5588Z" fill="white"/>
<path d="M10.9466 10.9351V20.9006H7.85742V10.9351H10.9466Z" fill="white"/>
<path d="M11.1927 7.76474C11.1729 8.78251 10.3527 9.57931 9.34666 9.55663C8.38231 9.53541 7.58331 8.69251 7.60087 7.71572C7.61916 6.72502 8.44962 5.92237 9.43227 5.94505C10.42 5.96846 11.211 6.78575 11.1927 7.76401V7.76474Z" fill="white"/>
</g>
<defs>
<clipPath id="clip0_442_1087">
<rect width="14.9673" height="14.9592" fill="white" transform="translate(7.60059 5.94507)"/>
</clipPath>
</defs>
</svg>
