<svg width="29" height="28" viewBox="0 0 29 28" fill="none" xmlns="http://www.w3.org/2000/svg">
<circle cx="14.6806" cy="13.8085" r="13.8085" fill="#3B0978"/>
<path d="M15.8305 22.4577H12.8025V14.9316H10.2686V11.9933H12.7979C12.7979 11.91 12.7979 11.8467 12.7979 11.7834C12.8012 11.0199 12.7831 10.2565 12.8134 9.49429C12.8503 8.57451 13.1183 7.7303 13.7616 7.03917C14.3113 6.44816 15.0057 6.13231 15.7911 6.01411C16.6695 5.88234 17.5493 5.9689 18.4284 6.02961C18.5608 6.03866 18.6932 6.05416 18.8288 6.06708V8.69142C18.7171 8.69142 18.6112 8.69013 18.5059 8.69142C17.9904 8.69917 17.4737 8.69013 16.9596 8.71919C16.2665 8.75859 15.8977 9.08478 15.8538 9.7759C15.8079 10.5032 15.8434 11.2357 15.8434 11.992H18.7319C18.6041 12.9829 18.4794 13.9498 18.3528 14.9322H15.8299V22.4577H15.8305Z" fill="white"/>
</svg>
