<svg width="24" height="24" viewBox="0 0 24 24" fill="none" xmlns="http://www.w3.org/2000/svg">
<circle cx="11.9998" cy="11.9998" r="11.9998" fill="white"/>
<path d="M12.8335 19.35H10.202V12.8095H8V10.2561H10.1981C10.1981 10.1837 10.1981 10.1287 10.1981 10.0737C10.2009 9.4102 10.1852 8.74673 10.2116 8.08437C10.2436 7.28506 10.4765 6.55142 11.0356 5.95081C11.5133 5.4372 12.1167 5.16272 12.7993 5.06C13.5626 4.94549 14.3272 5.02071 15.0911 5.07347C15.2062 5.08133 15.3213 5.0948 15.4391 5.10603V7.38666C15.342 7.38666 15.25 7.38554 15.1585 7.38666C14.7105 7.39339 14.2615 7.38554 13.8147 7.41079C13.2124 7.44503 12.8919 7.7285 12.8537 8.32911C12.8139 8.96115 12.8447 9.59768 12.8447 10.255H15.3549C15.2438 11.116 15.1355 11.9563 15.0254 12.8101H12.8329V19.35H12.8335Z" fill="#3B0978"/>
</svg>
