<svg width="24" height="24" viewBox="0 0 24 24" fill="none" xmlns="http://www.w3.org/2000/svg">
<circle cx="11.9998" cy="11.9998" r="11.9998" fill="white"/>
<path d="M5.00731 19.3457C5.3385 18.955 5.6676 18.5622 6.00192 18.1735C7.45831 16.4779 8.91575 14.7843 10.3721 13.0897C10.4024 13.0542 10.4306 13.0176 10.4651 12.9759C8.6462 10.3253 6.82833 7.67789 5 5.01376C5.05224 5.00958 5.08671 5.00435 5.12119 5.00435C6.43132 5.00435 7.74249 5.00435 9.05261 5.00122C9.1456 5.00122 9.19261 5.0357 9.24171 5.10779C10.3909 6.78567 11.5423 8.46146 12.6936 10.1372C12.7218 10.179 12.7521 10.2187 12.7908 10.272C13.03 9.99516 13.2599 9.7277 13.4897 9.46024C14.7277 8.02057 15.9658 6.58089 17.1996 5.13808C17.2874 5.0357 17.3752 4.99704 17.5078 5.00018C17.8463 5.00958 18.1848 5.00331 18.5568 5.00331C16.8047 7.04163 15.0736 9.05592 13.3393 11.0733C13.3696 11.1193 13.3936 11.158 13.4197 11.1956C15.2543 13.8681 17.0889 16.5406 18.9224 19.2131C18.9506 19.2548 18.9736 19.2998 18.9998 19.3436H14.8301C14.8134 19.3154 14.7988 19.2862 14.781 19.2601C13.5493 17.4652 12.3164 15.6692 11.0847 13.8743C11.0648 13.8451 11.0397 13.819 11.0115 13.7845C10.9677 13.8336 10.9311 13.8754 10.8945 13.9172C9.89991 15.0737 8.9053 16.2303 7.91174 17.3879C7.35279 18.0387 6.79594 18.6917 6.23908 19.3436H5.00731V19.3457ZM6.68415 5.93419C6.71967 5.99061 6.73952 6.02613 6.76251 6.05956C9.6241 10.1571 12.4867 14.2546 15.3473 18.3543C15.3974 18.4264 15.4486 18.4587 15.5395 18.4577C16.0849 18.4535 16.6302 18.4556 17.1756 18.4546C17.2143 18.4546 17.2519 18.4483 17.3083 18.4431C17.2644 18.3793 17.2341 18.3334 17.2028 18.2884C15.1038 15.2837 13.006 12.279 10.9071 9.27532C10.1569 8.20131 9.40679 7.1273 8.65352 6.05434C8.618 6.00419 8.55218 5.94046 8.49994 5.94046C7.90338 5.9321 7.30682 5.93523 6.68206 5.93523L6.68415 5.93419Z" fill="#3B0978"/>
</svg>
