<svg width="24" height="24" viewBox="0 0 24 24" fill="none" xmlns="http://www.w3.org/2000/svg">
<circle cx="11.9988" cy="11.9998" r="11.9998" fill="white"/>
<g clip-path="url(#clip0_442_1491)">
<path d="M11.8005 6C13.4085 6.06277 15.0164 6.12032 16.6237 6.1929C17.0023 6.2099 17.3822 6.26025 17.7556 6.32891C18.6593 6.49435 19.238 7.10379 19.4093 8.05196C19.6467 9.36892 19.6944 10.7009 19.65 12.0329C19.6186 12.9602 19.529 13.8868 19.4388 14.8107C19.3727 15.4882 19.0961 16.063 18.4991 16.4474C18.1349 16.6822 17.7236 16.7502 17.3064 16.794C15.5735 16.9758 13.8328 17.0065 12.0935 16.9987C10.5607 16.9915 9.02794 16.9372 7.49649 16.8836C7.00345 16.8666 6.51041 16.8038 6.02194 16.7319C5.05023 16.5887 4.4578 16.0093 4.26424 15.0435C4.0818 14.1339 4.0393 13.21 4.01183 12.2866C3.97521 11.0462 4.01379 9.80769 4.17073 8.57508C4.20473 8.30632 4.25116 8.03692 4.31851 7.7747C4.52842 6.95012 5.20259 6.39627 6.09975 6.2838C7.62401 6.09351 9.15741 6.07651 10.6902 6.051C11.0596 6.04447 11.4297 6.05035 11.7992 6.05035C11.7992 6.034 11.7998 6.017 11.8005 6.00065V6ZM10.2795 13.8645C11.639 13.0818 12.9815 12.3082 14.3462 11.5222C12.9795 10.7349 11.6364 9.96136 10.2795 9.1806V13.8645Z" fill="#3B0978"/>
</g>
<defs>
<clipPath id="clip0_442_1491">
<rect width="15.6656" height="11" fill="white" transform="translate(3.99902 6)"/>
</clipPath>
</defs>
</svg>
